<svg xmlns="http://www.w3.org/2000/svg" version="1.1" xmlns:xlink="http://www.w3.org/1999/xlink" xmlns:svgjs="http://svgjs.dev/svgjs" width="1000" height="1000" viewBox="0 0 1000 1000"><rect width="1000" height="1000" fill="#000000"></rect><g transform="matrix(0.7,0,0,0.7,149.57575757575756,282.1265587044535)"><svg viewBox="0 0 396 247" data-background-color="#f9f9f9" preserveAspectRatio="xMidYMid meet" height="623" width="1000" xmlns="http://www.w3.org/2000/svg" xmlns:xlink="http://www.w3.org/1999/xlink"><g id="tight-bounds" transform="matrix(1,0,0,1,0.2400000000000091,-0.09999999999999432)"><svg viewBox="0 0 395.52 247.2" height="247.2" width="395.52"><g><svg></svg></g><g><svg viewBox="0 0 395.52 247.2" height="247.2" width="395.52"><g transform="matrix(1,0,0,1,39.55199999999999,93.24712540192925)"><svg viewBox="0 0 316.416 60.70574919614147" height="60.70574919614147" width="316.416"><g><svg viewBox="0 0 316.416 60.70574919614147" height="60.70574919614147" width="316.416"><g><svg viewBox="0 0 316.416 60.70574919614147" height="60.70574919614147" width="316.416"><g><svg viewBox="0 0 316.416 60.70574919614147" height="60.70574919614147" width="316.416"><g id="textblocktransform"><svg viewBox="0 0 316.416 60.70574919614147" height="60.70574919614147" width="316.416" id="textblock"><g><svg viewBox="0 0 316.416 60.70574919614147" height="60.70574919614147" width="316.416"><g transform="matrix(1,0,0,1,0,0)"><svg width="316.416" viewBox="1.75 -35.5 186.5800018310547 35.79999923706055" height="60.70574919614147" data-palette-color="#030303"><path d="M1.75-25L5.65-25 5.65-29.8Q5.65-32.85 7.53-34.18 9.4-35.5 11.58-35.5 13.75-35.5 15.8-34.85L15.8-34.85 15.25-32.15Q13.6-32.45 12.8-32.45L12.8-32.45Q9.35-32.45 9.35-29.1L9.35-29.1 9.35-25 14.45-25 14.45-22 9.35-22 9.35 0 5.6 0 5.6-22 1.75-22 1.75-25ZM22.85-19.1L22.85-19.1 22.85 0 19.1 0 19.1-25 21.5-25 22.1-22.05Q24.5-23.95 26.1-24.73 27.7-25.5 29.75-25.5L29.75-25.5Q30.75-25.5 31.25-25.4L31.25-25.4 31.95-25.2 31.35-21.75Q30.45-22.05 28.9-22.05L28.9-22.05Q25.9-22.05 22.85-19.1ZM48.45-14.95L48.45-14.95 50.5-14.95Q50.5-19.5 49.35-20.88 48.2-22.25 44.25-22.25 40.3-22.25 37.55-21.2L37.55-21.2 36.85-24.1Q41.05-25.5 45.55-25.5L45.55-25.5Q54.35-25.5 54.35-16.7L54.35-16.7 54.35 0 52.15 0 50.85-2.95Q48.55-1.05 46.87-0.38 45.2 0.3 43 0.3L43 0.3Q39.5 0.3 37.55-1.78 35.6-3.85 35.6-7.25L35.6-7.25Q35.6-14.95 48.45-14.95ZM50.55-6.55L50.55-11.8 48.3-11.8Q43.2-11.8 41.27-10.8 39.35-9.8 39.35-7.68 39.35-5.55 40.45-4.2 41.55-2.85 43.32-2.85 45.1-2.85 46.72-3.68 48.35-4.5 50.55-6.55L50.55-6.55ZM73.99-25.55L73.99-25.55Q78.79-25.55 80.84-22.15L80.84-22.15Q85.09-25.55 88.69-25.55 92.29-25.55 94.57-23.53 96.84-21.5 96.84-17.65L96.84-17.65 96.84 0 93.19 0 93.19-16.1Q93.19-19.15 91.82-20.73 90.44-22.3 88.14-22.3L88.14-22.3Q84.99-22.3 81.79-19.8L81.79-19.8Q82.04-18.7 82.04-17.65L82.04-17.65 82.04 0 78.39 0 78.39-16.1Q78.39-19.15 77.02-20.73 75.64-22.3 73.34-22.3L73.34-22.3Q71.84-22.3 70.59-21.9 69.34-21.5 68.74-21.1 68.14-20.7 67.19-19.9L67.19-19.9 67.19 0 63.44 0 63.44-25 65.84-25 66.49-22.45Q67.74-23.5 68.42-23.98 69.09-24.45 70.64-25 72.19-25.55 73.99-25.55ZM123.29-11.7L123.29-11.7 107.34-11.7Q107.34-6.9 109.62-4.9 111.89-2.9 115.34-2.9L115.34-2.9Q117.09-2.9 117.79-3.08 118.49-3.25 119.12-3.43 119.74-3.6 119.99-3.7L119.99-3.7Q121.24-4.05 122.14-4.35L122.14-4.35 122.74-1.45Q117.74 0.3 114.94 0.3L114.94 0.3Q109.79 0.3 106.69-2.83 103.59-5.95 103.59-12.23 103.59-18.5 106.52-22 109.44-25.5 113.92-25.5 118.39-25.5 120.89-22.6 123.39-19.7 123.39-14.75L123.39-14.75Q123.39-13.4 123.29-11.7ZM107.59-14.55L107.59-14.55 119.79-14.55Q119.79-18.25 118.49-20.25 117.19-22.25 113.97-22.25 110.74-22.25 109.24-20.1 107.74-17.95 107.59-14.55ZM134.14-19.1L134.14-19.1 134.14 0 130.39 0 130.39-25 132.79-25 133.39-22.05Q135.79-23.95 137.39-24.73 138.99-25.5 141.04-25.5L141.04-25.5Q142.04-25.5 142.54-25.4L142.54-25.4 143.24-25.2 142.64-21.75Q141.74-22.05 140.19-22.05L140.19-22.05Q137.19-22.05 134.14-19.1ZM150.84-5.3L150.84 0 147.09 0 147.09-5.3 150.84-5.3ZM172.38-6.35L172.38-6.35 172.38-25 176.18-25 176.18 0 173.98 0 172.73-2.95Q168.73 0.3 165.08 0.3 161.43 0.3 159.51-1.83 157.58-3.95 157.58-7.85L157.58-7.85 157.58-25 161.33-25 161.33-8.45Q161.33-5.5 162.21-4.2 163.08-2.9 165.11-2.9 167.13-2.9 169.23-4 171.33-5.1 172.38-6.35ZM188.33 0L184.58 0 184.58-25 188.33-25 188.33 0ZM184.58-35L188.33-35 188.33-30.55 184.58-30.55 184.58-35Z" opacity="1" transform="matrix(1,0,0,1,0,0)" fill="#ffffff" class="undefined-text-0" data-fill-palette-color="primary" id="text-0"></path></svg></g></svg></g></svg></g></svg></g></svg></g></svg></g></svg></g><g mask="url(#cd89ad8c-a900-4357-917f-94929008232c)"><g transform="matrix(2.5696111937340826, 0, 0, 2.5696111937340826, 69.27959714991658, 1)"><svg xmlns="http://www.w3.org/2000/svg" xmlns:xlink="http://www.w3.org/1999/xlink" version="1.1" x="0" y="0" viewBox="0 2.2889997959136963 99.9998779296875 95.4229965209961" enable-background="new 0 0 100 100" xml:space="preserve" height="95.4229965209961" width="99.9998779296875" class="icon-none" data-fill-palette-color="accent" id="none"><g fill="#030303" data-fill-palette-color="accent"><path d="M99.279 18.508L83.756 2.982c-0.923-0.924-2.558-0.924-3.48 0l-9.656 9.659c-0.756-2.6-3.13-4.516-5.968-4.516H6.243C2.8 8.126 0 10.928 0 14.37v46.522c0 3.443 2.8 6.243 6.243 6.243h10.016l-3.005 3.006c-0.01 0.009-0.019 0.021-0.029 0.029l-0.055 0.055c-0.078 0.077-0.138 0.164-0.202 0.248-0.079 0.102-0.147 0.207-0.209 0.32-0.054 0.1-0.107 0.199-0.146 0.304-0.012 0.031-0.033 0.058-0.043 0.09L4.807 94.471c-0.294 0.885-0.064 1.86 0.595 2.519 0.469 0.47 1.098 0.722 1.741 0.722 0.26 0 0.522-0.042 0.777-0.126l23.287-7.762c0.021-0.007 0.039-0.021 0.061-0.029 0.167-0.061 0.329-0.137 0.48-0.232 0.01-0.006 0.02-0.009 0.029-0.015 0.142-0.093 0.274-0.198 0.395-0.318L54.26 67.136h10.392c3.442 0 6.241-2.8 6.241-6.243V50.498l15.009-15.011c0.147-0.148 0.267-0.317 0.37-0.494l13.008-13.006C100.24 21.026 100.24 19.468 99.279 18.508zM65.971 60.893c0 0.729-0.592 1.321-1.319 1.321h-5.47l6.789-6.792V60.893zM68.494 21.848l4.443 4.442L22.833 76.408l-4.442-4.441L68.494 21.848zM4.921 60.893V14.37c0-0.729 0.592-1.321 1.321-1.321h58.409c0.728 0 1.319 0.592 1.319 1.321v2.948L21.174 62.214H6.243C5.514 62.214 4.921 61.621 4.921 60.893zM11.033 91.359l4.946-14.839 9.893 9.893L11.033 91.359zM66.693 47.738c0 0-0.002 0-0.002 0.002l-2.67 2.671-33.59 33.597-4.119-4.12L76.418 29.77l4.121 4.12L66.693 47.738zM84.1 30.205L72.055 18.166l9.961-9.962 12.043 12.043L84.1 30.205z" fill="#ffffff" data-fill-palette-color="accent"></path><path d="M22.885 27.229c0-0.652-0.259-1.277-0.721-1.74l-5.917-5.916c-0.961-0.959-2.519-0.96-3.48 0.002-0.961 0.96-0.961 2.519 0 3.48l4.176 4.174-4.176 4.176c-0.962 0.962-0.962 2.52 0 3.48 0.48 0.48 1.11 0.722 1.74 0.722 0.629 0 1.259-0.241 1.74-0.721l5.917-5.916C22.625 28.508 22.885 27.883 22.885 27.229z" fill="#ffffff" data-fill-palette-color="accent"></path><path d="M26.482 35.606h7.048c1.359 0 2.461-1.102 2.461-2.461 0-1.358-1.102-2.462-2.461-2.462h-7.048c-1.359 0-2.46 1.104-2.46 2.462C24.021 34.505 25.123 35.606 26.482 35.606z" fill="#ffffff" data-fill-palette-color="accent"></path></g></svg></g></g></svg></g><defs><mask id="cd89ad8c-a900-4357-917f-94929008232c"><rect width="640" height="400" fill="white"></rect><rect width="348.05760000000004" height="89.36809009059806" fill="black" y="78.91595495470096" x="23.731199999999973" id="transform-me"></rect></mask></defs></svg><rect width="395.52" height="247.2" fill="none" stroke="none" visibility="hidden"></rect></g></svg></g></svg>